<svg width="209" height="104" viewBox="0 0 209 104" fill="none" xmlns="http://www.w3.org/2000/svg">
<g filter="url(#filter0_d_98_15)">
<rect x="69" y="9" width="70" height="70" rx="10" fill="#BFBDC2" fill-opacity="0.5"/>
</g>
<path d="M103.5 44.5H91.8335M103.5 56.1667V44.5V56.1667ZM103.5 44.5V32.8334V44.5ZM103.5 44.5H115.167H103.5Z" stroke="#2E49E8" stroke-width="2" stroke-linecap="round"/>
<path d="M5.81535 100.192C4.46069 100.192 3.42602 99.792 2.71135 98.992C1.99669 98.192 1.63935 96.9173 1.63935 95.168V89.568H4.00735V95.408C4.00735 96.432 4.16202 97.1467 4.47135 97.552C4.78069 97.9573 5.22869 98.16 5.81535 98.16C6.40202 98.16 6.85535 97.9573 7.17535 97.552C7.49535 97.1467 7.65535 96.432 7.65535 95.408V89.568H9.92735V95.168C9.92735 96.9173 9.57535 98.192 8.87135 98.992C8.17802 99.792 7.15935 100.192 5.81535 100.192ZM11.8186 102.944V92.064H13.7386L13.8986 92.848H13.9626C14.272 92.5707 14.6186 92.3413 15.0026 92.16C15.3973 91.968 15.8026 91.872 16.2186 91.872C16.6986 91.872 17.1306 91.968 17.5146 92.16C17.8986 92.352 18.224 92.624 18.4906 92.976C18.7573 93.328 18.96 93.7547 19.0986 94.256C19.248 94.7467 19.3226 95.296 19.3226 95.904C19.3226 96.5867 19.2266 97.1947 19.0346 97.728C18.8533 98.2507 18.6026 98.6987 18.2826 99.072C17.9733 99.4347 17.616 99.712 17.2106 99.904C16.816 100.096 16.4053 100.192 15.9786 100.192C15.6373 100.192 15.3066 100.123 14.9866 99.984C14.6666 99.8347 14.368 99.6267 14.0906 99.36L14.1706 100.624V102.944H11.8186ZM15.4346 98.272C15.84 98.272 16.1866 98.0907 16.4746 97.728C16.7626 97.3547 16.9066 96.7573 16.9066 95.936C16.9066 94.5067 16.448 93.792 15.5306 93.792C15.072 93.792 14.6186 94.032 14.1706 94.512V97.76C14.384 97.952 14.5973 98.0853 14.8106 98.16C15.024 98.2347 15.232 98.272 15.4346 98.272ZM22.8172 100.192C22.4119 100.192 22.0705 100.128 21.7932 100C21.5159 99.872 21.2919 99.696 21.1212 99.472C20.9612 99.2373 20.8439 98.96 20.7692 98.64C20.6945 98.3093 20.6572 97.9413 20.6572 97.536V88.784H23.0092V97.632C23.0092 97.8773 23.0519 98.048 23.1372 98.144C23.2332 98.24 23.3292 98.288 23.4252 98.288C23.4785 98.288 23.5212 98.288 23.5532 98.288C23.5959 98.288 23.6492 98.2773 23.7132 98.256L24.0012 100C23.8732 100.053 23.7079 100.096 23.5052 100.128C23.3132 100.171 23.0839 100.192 22.8172 100.192ZM28.31 100.192C27.8086 100.192 27.3233 100.101 26.854 99.92C26.3846 99.728 25.9686 99.456 25.606 99.104C25.254 98.752 24.9713 98.32 24.758 97.808C24.5446 97.2853 24.438 96.6933 24.438 96.032C24.438 95.3707 24.5446 94.784 24.758 94.272C24.9713 93.7493 25.254 93.312 25.606 92.96C25.9686 92.608 26.3846 92.3413 26.854 92.16C27.3233 91.968 27.8086 91.872 28.31 91.872C28.8113 91.872 29.2913 91.968 29.75 92.16C30.2193 92.3413 30.63 92.608 30.982 92.96C31.3446 93.312 31.6326 93.7493 31.846 94.272C32.0593 94.784 32.166 95.3707 32.166 96.032C32.166 96.6933 32.0593 97.2853 31.846 97.808C31.6326 98.32 31.3446 98.752 30.982 99.104C30.63 99.456 30.2193 99.728 29.75 99.92C29.2913 100.101 28.8113 100.192 28.31 100.192ZM28.31 98.288C28.79 98.288 29.1526 98.0853 29.398 97.68C29.6433 97.2747 29.766 96.7253 29.766 96.032C29.766 95.3387 29.6433 94.7893 29.398 94.384C29.1526 93.9787 28.79 93.776 28.31 93.776C27.8193 93.776 27.4513 93.9787 27.206 94.384C26.9713 94.7893 26.854 95.3387 26.854 96.032C26.854 96.7253 26.9713 97.2747 27.206 97.68C27.4513 98.0853 27.8193 98.288 28.31 98.288ZM35.2718 100.192C34.9091 100.192 34.5784 100.128 34.2798 100C33.9918 99.8827 33.7464 99.7173 33.5438 99.504C33.3411 99.28 33.1811 99.024 33.0638 98.736C32.9571 98.448 32.9038 98.1333 32.9038 97.792C32.9038 96.96 33.2558 96.3093 33.9598 95.84C34.6638 95.3707 35.7998 95.056 37.3678 94.896C37.3464 94.544 37.2398 94.2667 37.0478 94.064C36.8664 93.8507 36.5571 93.744 36.1198 93.744C35.7784 93.744 35.4371 93.808 35.0958 93.936C34.7651 94.064 34.4078 94.24 34.0238 94.464L33.1758 92.912C33.6878 92.6027 34.2211 92.352 34.7758 92.16C35.3411 91.968 35.9384 91.872 36.5678 91.872C37.5918 91.872 38.3704 92.1653 38.9038 92.752C39.4478 93.328 39.7198 94.2293 39.7198 95.456V100H37.7998L37.6398 99.184H37.5758C37.2344 99.4827 36.8771 99.728 36.5038 99.92C36.1304 100.101 35.7198 100.192 35.2718 100.192ZM36.0718 98.368C36.3384 98.368 36.5678 98.3093 36.7598 98.192C36.9518 98.0747 37.1544 97.9093 37.3678 97.696V96.304C36.5358 96.4213 35.9598 96.592 35.6398 96.816C35.3198 97.04 35.1598 97.3067 35.1598 97.616C35.1598 97.872 35.2398 98.064 35.3998 98.192C35.5704 98.3093 35.7944 98.368 36.0718 98.368ZM44.2079 100.192C43.7173 100.192 43.2693 100.096 42.8639 99.904C42.4693 99.712 42.1279 99.44 41.8399 99.088C41.5626 98.7253 41.3439 98.288 41.1839 97.776C41.0346 97.264 40.9599 96.6827 40.9599 96.032C40.9599 95.3813 41.0506 94.8 41.2319 94.288C41.4239 93.776 41.6693 93.344 41.9679 92.992C42.2773 92.6293 42.6293 92.352 43.0239 92.16C43.4293 91.968 43.8399 91.872 44.2559 91.872C44.7039 91.872 45.0719 91.9467 45.3599 92.096C45.6479 92.2453 45.9306 92.448 46.2079 92.704L46.1119 91.488V88.784H48.4639V100H46.5439L46.3839 99.216H46.3199C46.0426 99.4933 45.7173 99.728 45.3439 99.92C44.9706 100.101 44.5919 100.192 44.2079 100.192ZM44.8159 98.272C45.0719 98.272 45.3013 98.2187 45.5039 98.112C45.7173 98.0053 45.9199 97.8187 46.1119 97.552V94.304C45.8986 94.112 45.6799 93.9787 45.4559 93.904C45.2319 93.8293 45.0133 93.792 44.7999 93.792C44.4266 93.792 44.0959 93.9733 43.8079 94.336C43.5199 94.688 43.3759 95.2427 43.3759 96C43.3759 96.7893 43.4986 97.3653 43.7439 97.728C43.9999 98.0907 44.3573 98.272 44.8159 98.272ZM53.0843 102.944V92.064H55.0043L55.1643 92.848H55.2283C55.5376 92.5707 55.8843 92.3413 56.2683 92.16C56.6629 91.968 57.0683 91.872 57.4843 91.872C57.9643 91.872 58.3963 91.968 58.7803 92.16C59.1643 92.352 59.4896 92.624 59.7563 92.976C60.0229 93.328 60.2256 93.7547 60.3643 94.256C60.5136 94.7467 60.5883 95.296 60.5883 95.904C60.5883 96.5867 60.4923 97.1947 60.3003 97.728C60.1189 98.2507 59.8683 98.6987 59.5483 99.072C59.2389 99.4347 58.8816 99.712 58.4763 99.904C58.0816 100.096 57.6709 100.192 57.2443 100.192C56.9029 100.192 56.5723 100.123 56.2523 99.984C55.9323 99.8347 55.6336 99.6267 55.3563 99.36L55.4363 100.624V102.944H53.0843ZM56.7003 98.272C57.1056 98.272 57.4523 98.0907 57.7403 97.728C58.0283 97.3547 58.1723 96.7573 58.1723 95.936C58.1723 94.5067 57.7136 93.792 56.7963 93.792C56.3376 93.792 55.8843 94.032 55.4363 94.512V97.76C55.6496 97.952 55.8629 98.0853 56.0763 98.16C56.2896 98.2347 56.4976 98.272 56.7003 98.272ZM61.9228 100V92.064H63.8428L64.0028 93.456H64.0668C64.3548 92.912 64.7015 92.512 65.1068 92.256C65.5121 92 65.9175 91.872 66.3228 91.872C66.5468 91.872 66.7281 91.888 66.8668 91.92C67.0161 91.9413 67.1495 91.9787 67.2668 92.032L66.8828 94.064C66.7335 94.0213 66.5948 93.9893 66.4668 93.968C66.3388 93.9467 66.1895 93.936 66.0188 93.936C65.7201 93.936 65.4055 94.0427 65.0748 94.256C64.7548 94.4693 64.4881 94.848 64.2748 95.392V100H61.9228ZM71.2162 100.192C70.7149 100.192 70.2296 100.101 69.7602 99.92C69.2909 99.728 68.8749 99.456 68.5122 99.104C68.1602 98.752 67.8776 98.32 67.6642 97.808C67.4509 97.2853 67.3442 96.6933 67.3442 96.032C67.3442 95.3707 67.4509 94.784 67.6642 94.272C67.8776 93.7493 68.1602 93.312 68.5122 92.96C68.8749 92.608 69.2909 92.3413 69.7602 92.16C70.2296 91.968 70.7149 91.872 71.2162 91.872C71.7176 91.872 72.1976 91.968 72.6562 92.16C73.1256 92.3413 73.5362 92.608 73.8882 92.96C74.2509 93.312 74.5389 93.7493 74.7522 94.272C74.9656 94.784 75.0722 95.3707 75.0722 96.032C75.0722 96.6933 74.9656 97.2853 74.7522 97.808C74.5389 98.32 74.2509 98.752 73.8882 99.104C73.5362 99.456 73.1256 99.728 72.6562 99.92C72.1976 100.101 71.7176 100.192 71.2162 100.192ZM71.2162 98.288C71.6962 98.288 72.0589 98.0853 72.3042 97.68C72.5496 97.2747 72.6722 96.7253 72.6722 96.032C72.6722 95.3387 72.5496 94.7893 72.3042 94.384C72.0589 93.9787 71.6962 93.776 71.2162 93.776C70.7256 93.776 70.3576 93.9787 70.1122 94.384C69.8776 94.7893 69.7602 95.3387 69.7602 96.032C69.7602 96.7253 69.8776 97.2747 70.1122 97.68C70.3576 98.0853 70.7256 98.288 71.2162 98.288ZM76.3499 102.944V92.064H78.2699L78.4299 92.848H78.4939C78.8032 92.5707 79.1499 92.3413 79.5339 92.16C79.9286 91.968 80.3339 91.872 80.7499 91.872C81.2299 91.872 81.6619 91.968 82.0459 92.16C82.4299 92.352 82.7552 92.624 83.0219 92.976C83.2886 93.328 83.4912 93.7547 83.6299 94.256C83.7792 94.7467 83.8539 95.296 83.8539 95.904C83.8539 96.5867 83.7579 97.1947 83.5659 97.728C83.3846 98.2507 83.1339 98.6987 82.8139 99.072C82.5046 99.4347 82.1472 99.712 81.7419 99.904C81.3472 100.096 80.9366 100.192 80.5099 100.192C80.1686 100.192 79.8379 100.123 79.5179 99.984C79.1979 99.8347 78.8992 99.6267 78.6219 99.36L78.7019 100.624V102.944H76.3499ZM79.9659 98.272C80.3712 98.272 80.7179 98.0907 81.0059 97.728C81.2939 97.3547 81.4379 96.7573 81.4379 95.936C81.4379 94.5067 80.9792 93.792 80.0619 93.792C79.6032 93.792 79.1499 94.032 78.7019 94.512V97.76C78.9152 97.952 79.1286 98.0853 79.3419 98.16C79.5552 98.2347 79.7632 98.272 79.9659 98.272ZM88.7404 100.192C88.1751 100.192 87.6471 100.101 87.1564 99.92C86.6658 99.728 86.2391 99.456 85.8764 99.104C85.5138 98.7413 85.2311 98.304 85.0284 97.792C84.8258 97.28 84.7244 96.6933 84.7244 96.032C84.7244 95.392 84.8311 94.816 85.0444 94.304C85.2578 93.7813 85.5351 93.344 85.8764 92.992C86.2284 92.6293 86.6284 92.352 87.0764 92.16C87.5244 91.968 87.9884 91.872 88.4684 91.872C89.0338 91.872 89.5244 91.968 89.9404 92.16C90.3671 92.352 90.7191 92.6187 90.9964 92.96C91.2844 93.3013 91.4978 93.7067 91.6364 94.176C91.7751 94.6347 91.8444 95.136 91.8444 95.68C91.8444 95.8933 91.8338 96.096 91.8124 96.288C91.7911 96.48 91.7698 96.624 91.7484 96.72H86.9964C87.1031 97.296 87.3378 97.7227 87.7004 98C88.0738 98.2667 88.5271 98.4 89.0604 98.4C89.6258 98.4 90.1964 98.224 90.7724 97.872L91.5564 99.296C91.1511 99.5733 90.6978 99.792 90.1964 99.952C89.7058 100.112 89.2204 100.192 88.7404 100.192ZM86.9804 95.168H89.8444C89.8444 94.72 89.7431 94.3573 89.5404 94.08C89.3378 93.8027 88.9964 93.664 88.5164 93.664C88.1431 93.664 87.8124 93.7867 87.5244 94.032C87.2471 94.2773 87.0658 94.656 86.9804 95.168ZM93.1364 100V92.064H95.0564L95.2164 93.456H95.2804C95.5684 92.912 95.915 92.512 96.3204 92.256C96.7257 92 97.131 91.872 97.5364 91.872C97.7604 91.872 97.9417 91.888 98.0804 91.92C98.2297 91.9413 98.363 91.9787 98.4804 92.032L98.0964 94.064C97.947 94.0213 97.8084 93.9893 97.6804 93.968C97.5524 93.9467 97.403 93.936 97.2324 93.936C96.9337 93.936 96.619 94.0427 96.2884 94.256C95.9684 94.4693 95.7017 94.848 95.4884 95.392V100H93.1364ZM102.234 100.192C101.743 100.192 101.322 100.117 100.97 99.968C100.629 99.8187 100.346 99.6107 100.122 99.344C99.9087 99.0773 99.7487 98.7573 99.642 98.384C99.546 98 99.498 97.5787 99.498 97.12V93.904H98.41V92.16L99.626 92.064L99.898 89.952H101.85V92.064H103.754V93.904H101.85V97.088C101.85 97.536 101.941 97.8613 102.122 98.064C102.314 98.256 102.565 98.352 102.874 98.352C103.002 98.352 103.13 98.336 103.258 98.304C103.397 98.272 103.519 98.2347 103.626 98.192L103.994 99.904C103.781 99.968 103.53 100.032 103.242 100.096C102.954 100.16 102.618 100.192 102.234 100.192ZM105.85 103.104C105.604 103.104 105.396 103.088 105.226 103.056C105.055 103.035 104.89 102.997 104.73 102.944L105.146 101.152C105.22 101.173 105.306 101.195 105.402 101.216C105.498 101.237 105.588 101.248 105.674 101.248C106.068 101.248 106.372 101.152 106.586 100.96C106.799 100.768 106.959 100.517 107.066 100.208L107.178 99.792L104.122 92.064H106.49L107.626 95.472C107.743 95.8347 107.85 96.2027 107.946 96.576C108.042 96.9493 108.143 97.3333 108.25 97.728H108.314C108.399 97.3547 108.484 96.9813 108.57 96.608C108.666 96.224 108.762 95.8453 108.858 95.472L109.818 92.064H112.074L109.322 100.08C109.13 100.581 108.927 101.019 108.714 101.392C108.511 101.776 108.271 102.091 107.994 102.336C107.727 102.592 107.418 102.784 107.066 102.912C106.724 103.04 106.319 103.104 105.85 103.104ZM115.85 102.944V92.064H117.77L117.93 92.848H117.994C118.303 92.5707 118.65 92.3413 119.034 92.16C119.429 91.968 119.834 91.872 120.25 91.872C120.73 91.872 121.162 91.968 121.546 92.16C121.93 92.352 122.255 92.624 122.522 92.976C122.789 93.328 122.991 93.7547 123.13 94.256C123.279 94.7467 123.354 95.296 123.354 95.904C123.354 96.5867 123.258 97.1947 123.066 97.728C122.885 98.2507 122.634 98.6987 122.314 99.072C122.005 99.4347 121.647 99.712 121.242 99.904C120.847 100.096 120.437 100.192 120.01 100.192C119.669 100.192 119.338 100.123 119.018 99.984C118.698 99.8347 118.399 99.6267 118.122 99.36L118.202 100.624V102.944H115.85ZM119.466 98.272C119.871 98.272 120.218 98.0907 120.506 97.728C120.794 97.3547 120.938 96.7573 120.938 95.936C120.938 94.5067 120.479 93.792 119.562 93.792C119.103 93.792 118.65 94.032 118.202 94.512V97.76C118.415 97.952 118.629 98.0853 118.842 98.16C119.055 98.2347 119.263 98.272 119.466 98.272ZM124.688 100V88.784H127.04V91.536L126.928 92.96C127.227 92.6933 127.574 92.448 127.968 92.224C128.363 91.9893 128.832 91.872 129.376 91.872C130.24 91.872 130.864 92.1547 131.248 92.72C131.643 93.2853 131.84 94.0693 131.84 95.072V100H129.488V95.376C129.488 94.8 129.408 94.4053 129.248 94.192C129.099 93.9787 128.854 93.872 128.512 93.872C128.214 93.872 127.958 93.9413 127.744 94.08C127.531 94.208 127.296 94.3947 127.04 94.64V100H124.688ZM136.904 100.192C136.402 100.192 135.917 100.101 135.448 99.92C134.978 99.728 134.562 99.456 134.2 99.104C133.848 98.752 133.565 98.32 133.352 97.808C133.138 97.2853 133.032 96.6933 133.032 96.032C133.032 95.3707 133.138 94.784 133.352 94.272C133.565 93.7493 133.848 93.312 134.2 92.96C134.562 92.608 134.978 92.3413 135.448 92.16C135.917 91.968 136.402 91.872 136.904 91.872C137.405 91.872 137.885 91.968 138.344 92.16C138.813 92.3413 139.224 92.608 139.576 92.96C139.938 93.312 140.226 93.7493 140.44 94.272C140.653 94.784 140.76 95.3707 140.76 96.032C140.76 96.6933 140.653 97.2853 140.44 97.808C140.226 98.32 139.938 98.752 139.576 99.104C139.224 99.456 138.813 99.728 138.344 99.92C137.885 100.101 137.405 100.192 136.904 100.192ZM136.904 98.288C137.384 98.288 137.746 98.0853 137.992 97.68C138.237 97.2747 138.36 96.7253 138.36 96.032C138.36 95.3387 138.237 94.7893 137.992 94.384C137.746 93.9787 137.384 93.776 136.904 93.776C136.413 93.776 136.045 93.9787 135.8 94.384C135.565 94.7893 135.448 95.3387 135.448 96.032C135.448 96.7253 135.565 97.2747 135.8 97.68C136.045 98.0853 136.413 98.288 136.904 98.288ZM144.672 100.192C144.181 100.192 143.76 100.117 143.408 99.968C143.066 99.8187 142.784 99.6107 142.56 99.344C142.346 99.0773 142.186 98.7573 142.08 98.384C141.984 98 141.936 97.5787 141.936 97.12V93.904H140.848V92.16L142.064 92.064L142.336 89.952H144.288V92.064H146.192V93.904H144.288V97.088C144.288 97.536 144.378 97.8613 144.56 98.064C144.752 98.256 145.002 98.352 145.312 98.352C145.44 98.352 145.568 98.336 145.696 98.304C145.834 98.272 145.957 98.2347 146.064 98.192L146.432 99.904C146.218 99.968 145.968 100.032 145.68 100.096C145.392 100.16 145.056 100.192 144.672 100.192ZM150.534 100.192C150.033 100.192 149.547 100.101 149.078 99.92C148.609 99.728 148.193 99.456 147.83 99.104C147.478 98.752 147.195 98.32 146.982 97.808C146.769 97.2853 146.662 96.6933 146.662 96.032C146.662 95.3707 146.769 94.784 146.982 94.272C147.195 93.7493 147.478 93.312 147.83 92.96C148.193 92.608 148.609 92.3413 149.078 92.16C149.547 91.968 150.033 91.872 150.534 91.872C151.035 91.872 151.515 91.968 151.974 92.16C152.443 92.3413 152.854 92.608 153.206 92.96C153.569 93.312 153.857 93.7493 154.07 94.272C154.283 94.784 154.39 95.3707 154.39 96.032C154.39 96.6933 154.283 97.2853 154.07 97.808C153.857 98.32 153.569 98.752 153.206 99.104C152.854 99.456 152.443 99.728 151.974 99.92C151.515 100.101 151.035 100.192 150.534 100.192ZM150.534 98.288C151.014 98.288 151.377 98.0853 151.622 97.68C151.867 97.2747 151.99 96.7253 151.99 96.032C151.99 95.3387 151.867 94.7893 151.622 94.384C151.377 93.9787 151.014 93.776 150.534 93.776C150.043 93.776 149.675 93.9787 149.43 94.384C149.195 94.7893 149.078 95.3387 149.078 96.032C149.078 96.7253 149.195 97.2747 149.43 97.68C149.675 98.0853 150.043 98.288 150.534 98.288ZM160.761 102.864C160.089 101.765 159.567 100.624 159.193 99.44C158.831 98.256 158.649 96.96 158.649 95.552C158.649 94.144 158.831 92.848 159.193 91.664C159.567 90.48 160.089 89.3387 160.761 88.24L162.233 88.848C161.647 89.8933 161.22 90.9867 160.953 92.128C160.687 93.2693 160.553 94.4107 160.553 95.552C160.553 96.6933 160.687 97.8347 160.953 98.976C161.22 100.117 161.647 101.211 162.233 102.256L160.761 102.864ZM163.704 100V92.064H165.624L165.784 93.088H165.848C166.179 92.7573 166.531 92.4747 166.904 92.24C167.277 91.9947 167.725 91.872 168.248 91.872C168.813 91.872 169.267 91.9893 169.608 92.224C169.96 92.448 170.237 92.7733 170.44 93.2C170.792 92.8373 171.16 92.528 171.544 92.272C171.939 92.0053 172.403 91.872 172.936 91.872C173.789 91.872 174.413 92.16 174.808 92.736C175.213 93.3013 175.416 94.08 175.416 95.072V100H173.064V95.376C173.064 94.8 172.984 94.4053 172.824 94.192C172.675 93.9787 172.429 93.872 172.088 93.872C171.693 93.872 171.24 94.128 170.728 94.64V100H168.376V95.376C168.376 94.8 168.296 94.4053 168.136 94.192C167.987 93.9787 167.741 93.872 167.4 93.872C166.995 93.872 166.547 94.128 166.056 94.64V100H163.704ZM179.089 100.192C178.727 100.192 178.396 100.128 178.097 100C177.809 99.8827 177.564 99.7173 177.361 99.504C177.159 99.28 176.999 99.024 176.881 98.736C176.775 98.448 176.721 98.1333 176.721 97.792C176.721 96.96 177.073 96.3093 177.777 95.84C178.481 95.3707 179.617 95.056 181.185 94.896C181.164 94.544 181.057 94.2667 180.865 94.064C180.684 93.8507 180.375 93.744 179.937 93.744C179.596 93.744 179.255 93.808 178.913 93.936C178.583 94.064 178.225 94.24 177.841 94.464L176.993 92.912C177.505 92.6027 178.039 92.352 178.593 92.16C179.159 91.968 179.756 91.872 180.385 91.872C181.409 91.872 182.188 92.1653 182.721 92.752C183.265 93.328 183.537 94.2293 183.537 95.456V100H181.617L181.457 99.184H181.393C181.052 99.4827 180.695 99.728 180.321 99.92C179.948 100.101 179.537 100.192 179.089 100.192ZM179.889 98.368C180.156 98.368 180.385 98.3093 180.577 98.192C180.769 98.0747 180.972 97.9093 181.185 97.696V96.304C180.353 96.4213 179.777 96.592 179.457 96.816C179.137 97.04 178.977 97.3067 178.977 97.616C178.977 97.872 179.057 98.064 179.217 98.192C179.388 98.3093 179.612 98.368 179.889 98.368ZM184.378 100L186.81 95.872L184.522 92.064H187.05L187.754 93.344C187.86 93.568 187.967 93.7973 188.074 94.032C188.191 94.256 188.308 94.48 188.426 94.704H188.49C188.575 94.48 188.666 94.256 188.762 94.032C188.858 93.7973 188.948 93.568 189.034 93.344L189.578 92.064H192.01L189.706 96.144L192.154 100H189.626L188.858 98.688C188.73 98.464 188.602 98.2347 188.474 98C188.356 97.7653 188.234 97.536 188.106 97.312H188.042C187.946 97.536 187.844 97.7653 187.738 98C187.631 98.224 187.53 98.4533 187.434 98.688L186.81 100H184.378ZM198.861 100.192C198.029 100.192 197.325 100.059 196.749 99.792C196.173 99.5147 195.682 99.1733 195.277 98.768L196.333 97.28C196.642 97.5573 196.973 97.7973 197.325 98C197.688 98.192 198.088 98.288 198.525 98.288C199.048 98.288 199.464 98.1547 199.773 97.888C200.082 97.6213 200.237 97.2267 200.237 96.704C200.237 96.192 200.088 95.8027 199.789 95.536C199.501 95.2693 199.117 95.136 198.637 95.136C198.488 95.136 198.354 95.1467 198.237 95.168C198.12 95.1787 198.002 95.2053 197.885 95.248C197.778 95.2907 197.661 95.344 197.533 95.408C197.416 95.472 197.282 95.552 197.133 95.648L196.077 94.976L196.365 89.84H202.125V91.824H198.397L198.221 93.728C198.413 93.6427 198.594 93.584 198.765 93.552C198.946 93.5093 199.144 93.488 199.357 93.488C199.794 93.488 200.205 93.552 200.589 93.68C200.984 93.808 201.33 94 201.629 94.256C201.928 94.512 202.162 94.8373 202.333 95.232C202.504 95.6267 202.589 96.096 202.589 96.64C202.589 97.2053 202.488 97.7067 202.285 98.144C202.082 98.5813 201.81 98.9547 201.469 99.264C201.128 99.5627 200.728 99.792 200.269 99.952C199.821 100.112 199.352 100.192 198.861 100.192ZM205.269 102.864L203.797 102.256C204.394 101.211 204.826 100.117 205.093 98.976C205.359 97.8347 205.493 96.6933 205.493 95.552C205.493 94.4107 205.359 93.2693 205.093 92.128C204.826 90.9867 204.394 89.8933 203.797 88.848L205.269 88.24C205.941 89.3387 206.458 90.48 206.821 91.664C207.194 92.848 207.381 94.144 207.381 95.552C207.381 96.96 207.194 98.256 206.821 99.44C206.458 100.624 205.941 101.765 205.269 102.864Z" fill="#BFBDC2"/>
<defs>
<filter id="filter0_d_98_15" x="60" y="0" width="94" height="94" filterUnits="userSpaceOnUse" color-interpolation-filters="sRGB">
<feFlood flood-opacity="0" result="BackgroundImageFix"/>
<feColorMatrix in="SourceAlpha" type="matrix" values="0 0 0 0 0 0 0 0 0 0 0 0 0 0 0 0 0 0 127 0" result="hardAlpha"/>
<feOffset dx="3" dy="3"/>
<feGaussianBlur stdDeviation="6"/>
<feColorMatrix type="matrix" values="0 0 0 0 0 0 0 0 0 0 0 0 0 0 0 0 0 0 0.15 0"/>
<feBlend mode="normal" in2="BackgroundImageFix" result="effect1_dropShadow_98_15"/>
<feBlend mode="normal" in="SourceGraphic" in2="effect1_dropShadow_98_15" result="shape"/>
</filter>
</defs>
</svg>
