<svg width="25" height="25" viewBox="0 0 25 25" fill="none" xmlns="http://www.w3.org/2000/svg">
<path d="M19.7916 2.08331H9.37494C8.22598 2.08331 7.29161 3.01769 7.29161 4.16665V9.9854L2.38848 14.8885C2.24285 15.0342 2.14367 15.2198 2.1035 15.4218C2.06333 15.6239 2.08395 15.8333 2.16278 16.0236C2.2416 16.2139 2.37508 16.3766 2.54634 16.491C2.7176 16.6055 2.91895 16.6666 3.12494 16.6666V21.875C3.12494 22.1512 3.23469 22.4162 3.43004 22.6116C3.62539 22.8069 3.89034 22.9166 4.16661 22.9166H20.8333C21.1095 22.9166 21.3745 22.8069 21.5698 22.6116C21.7652 22.4162 21.8749 22.1512 21.8749 21.875V4.16665C21.8749 3.01769 20.9406 2.08331 19.7916 2.08331ZM11.4583 20.8333H5.20827V15.0146L8.33327 11.8896L11.4583 15.0146V20.8333ZM19.7916 20.8333H13.5416V16.6666C13.7478 16.6671 13.9495 16.6063 14.1211 16.4919C14.2927 16.3775 14.4264 16.2147 14.5053 16.0242C14.5842 15.8337 14.6048 15.624 14.5643 15.4218C14.5238 15.2196 14.4242 15.034 14.2781 14.8885L9.37494 9.9854V4.16665H19.7916V20.8333Z" fill="white"/>
<path d="M11.4582 6.25H13.5415V8.33333H11.4582V6.25ZM15.6248 6.25H17.7082V8.33333H15.6248V6.25ZM15.6248 10.449H17.7082V12.5H15.6248V10.449ZM15.6248 14.5833H17.7082V16.6667H15.6248V14.5833ZM7.2915 15.625H9.37484V17.7083H7.2915V15.625Z" fill="white"/>
</svg>
